Coordinates
version=1
nRows=50
nColumns=16
inDegrees=yes
endheader
time	shoulder_elv_r	shoulder_elv_l	elv_angle_r	elv_angle_l	elbow_flexion_r	elbow_flexion_l	shoulder_rot_r	shoulder_rot_l	pro_sup_r	pro_sup_l	hip_flexion_r	hip_flexion_l	knee_angle_r	knee_angle_l	lumbar_extension
0.000000	80.000000	80.000000	180.000000	180.000000	30.000000	30.000000	15.000000	15.000000	80.000000	80.000000	0.000000	0.000000	0.000000	0.000000	0.000000
0.040816	78.877551	78.877551	180.000000	180.000000	30.000000	30.000000	15.000000	15.000000	80.000000	80.000000	0.000000	0.000000	0.000000	0.000000	0.000000
0.081633	77.755102	77.755102	180.000000	180.000000	30.000000	30.000000	15.000000	15.000000	80.000000	80.000000	0.000000	0.000000	0.000000	0.000000	0.000000
0.122449	76.632653	76.632653	180.000000	180.000000	30.000000	30.000000	15.000000	15.000000	80.000000	80.000000	0.000000	0.000000	0.000000	0.000000	0.000000
0.163265	75.510204	75.510204	180.000000	180.000000	30.000000	30.000000	15.000000	15.000000	80.000000	80.000000	0.000000	0.000000	0.000000	0.000000	0.000000
0.204082	74.387755	74.387755	180.000000	180.000000	30.000000	30.000000	15.000000	15.000000	80.000000	80.000000	0.000000	0.000000	0.000000	0.000000	0.000000
0.244898	73.265306	73.265306	180.000000	180.000000	30.000000	30.000000	15.000000	15.000000	80.000000	80.000000	0.000000	0.000000	0.000000	0.000000	0.000000
0.285714	72.142857	72.142857	180.000000	180.000000	30.000000	30.000000	15.000000	15.000000	80.000000	80.000000	0.000000	0.000000	0.000000	0.000000	0.000000
0.326531	71.020408	71.020408	180.000000	180.000000	30.000000	30.000000	15.000000	15.000000	80.000000	80.000000	0.000000	0.000000	0.000000	0.000000	0.000000
0.367347	69.897959	69.897959	180.000000	180.000000	30.000000	30.000000	15.000000	15.000000	80.000000	80.000000	0.000000	0.000000	0.000000	0.000000	0.000000
0.408163	68.775510	68.775510	180.000000	180.000000	30.000000	30.000000	15.000000	15.000000	80.000000	80.000000	0.000000	0.000000	0.000000	0.000000	0.000000
0.448980	67.653061	67.653061	180.000000	180.000000	30.000000	30.000000	15.000000	15.000000	80.000000	80.000000	0.000000	0.000000	0.000000	0.000000	0.000000
0.489796	66.530612	66.530612	180.000000	180.000000	30.000000	30.000000	15.000000	15.000000	80.000000	80.000000	0.000000	0.000000	0.000000	0.000000	0.000000
0.530612	65.408163	65.408163	180.000000	180.000000	30.000000	30.000000	15.000000	15.000000	80.000000	80.000000	0.000000	0.000000	0.000000	0.000000	0.000000
0.571429	64.285714	64.285714	180.000000	180.000000	30.000000	30.000000	15.000000	15.000000	80.000000	80.000000	0.000000	0.000000	0.000000	0.000000	0.000000
0.612245	63.163265	63.163265	180.000000	180.000000	30.000000	30.000000	15.000000	15.000000	80.000000	80.000000	0.000000	0.000000	0.000000	0.000000	0.000000
0.653061	62.040816	62.040816	180.000000	180.000000	30.000000	30.000000	15.000000	15.000000	80.000000	80.000000	0.000000	0.000000	0.000000	0.000000	0.000000
0.693878	60.918367	60.918367	180.000000	180.000000	30.000000	30.000000	15.000000	15.000000	80.000000	80.000000	0.000000	0.000000	0.000000	0.000000	0.000000
0.734694	59.795918	59.795918	180.000000	180.000000	30.000000	30.000000	15.000000	15.000000	80.000000	80.000000	0.000000	0.000000	0.000000	0.000000	0.000000
0.775510	58.673469	58.673469	180.000000	180.000000	30.000000	30.000000	15.000000	15.000000	80.000000	80.000000	0.000000	0.000000	0.000000	0.000000	0.000000
0.816327	57.551020	57.551020	180.000000	180.000000	30.000000	30.000000	15.000000	15.000000	80.000000	80.000000	0.000000	0.000000	0.000000	0.000000	0.000000
0.857143	56.428571	56.428571	180.000000	180.000000	30.000000	30.000000	15.000000	15.000000	80.000000	80.000000	0.000000	0.000000	0.000000	0.000000	0.000000
0.897959	55.306122	55.306122	180.000000	180.000000	30.000000	30.000000	15.000000	15.000000	80.000000	80.000000	0.000000	0.000000	0.000000	0.000000	0.000000
0.938776	54.183673	54.183673	180.000000	180.000000	30.000000	30.000000	15.000000	15.000000	80.000000	80.000000	0.000000	0.000000	0.000000	0.000000	0.000000
0.979592	53.061224	53.061224	180.000000	180.000000	30.000000	30.000000	15.000000	15.000000	80.000000	80.000000	0.000000	0.000000	0.000000	0.000000	0.000000
1.020408	51.938776	51.938776	180.000000	180.000000	30.000000	30.000000	15.000000	15.000000	80.000000	80.000000	0.000000	0.000000	0.000000	0.000000	0.000000
1.061224	50.816327	50.816327	180.000000	180.000000	30.000000	30.000000	15.000000	15.000000	80.000000	80.000000	0.000000	0.000000	0.000000	0.000000	0.000000
1.102041	49.693878	49.693878	180.000000	180.000000	30.000000	30.000000	15.000000	15.000000	80.000000	80.000000	0.000000	0.000000	0.000000	0.000000	0.000000
1.142857	48.571429	48.571429	180.000000	180.000000	30.000000	30.000000	15.000000	15.000000	80.000000	80.000000	0.000000	0.000000	0.000000	0.000000	0.000000
1.183673	47.448980	47.448980	180.000000	180.000000	30.000000	30.000000	15.000000	15.000000	80.000000	80.000000	0.000000	0.000000	0.000000	0.000000	0.000000
1.224490	46.326531	46.326531	180.000000	180.000000	30.000000	30.000000	15.000000	15.000000	80.000000	80.000000	0.000000	0.000000	0.000000	0.000000	0.000000
1.265306	45.204082	45.204082	180.000000	180.000000	30.000000	30.000000	15.000000	15.000000	80.000000	80.000000	0.000000	0.000000	0.000000	0.000000	0.000000
1.306122	44.081633	44.081633	180.000000	180.000000	30.000000	30.000000	15.000000	15.000000	80.000000	80.000000	0.000000	0.000000	0.000000	0.000000	0.000000
1.346939	42.959184	42.959184	180.000000	180.000000	30.000000	30.000000	15.000000	15.000000	80.000000	80.000000	0.000000	0.000000	0.000000	0.000000	0.000000
1.387755	41.836735	41.836735	180.000000	180.000000	30.000000	30.000000	15.000000	15.000000	80.000000	80.000000	0.000000	0.000000	0.000000	0.000000	0.000000
1.428571	40.714286	40.714286	180.000000	180.000000	30.000000	30.000000	15.000000	15.000000	80.000000	80.000000	0.000000	0.000000	0.000000	0.000000	0.000000
1.469388	39.591837	39.591837	180.000000	180.000000	30.000000	30.000000	15.000000	15.000000	80.000000	80.000000	0.000000	0.000000	0.000000	0.000000	0.000000
1.510204	38.469388	38.469388	180.000000	180.000000	30.000000	30.000000	15.000000	15.000000	80.000000	80.000000	0.000000	0.000000	0.000000	0.000000	0.000000
1.551020	37.346939	37.346939	180.000000	180.000000	30.000000	30.000000	15.000000	15.000000	80.000000	80.000000	0.000000	0.000000	0.000000	0.000000	0.000000
1.591837	36.224490	36.224490	180.000000	180.000000	30.000000	30.000000	15.000000	15.000000	80.000000	80.000000	0.000000	0.000000	0.000000	0.000000	0.000000
1.632653	35.102041	35.102041	180.000000	180.000000	30.000000	30.000000	15.000000	15.000000	80.000000	80.000000	0.000000	0.000000	0.000000	0.000000	0.000000
1.673469	33.979592	33.979592	180.000000	180.000000	30.000000	30.000000	15.000000	15.000000	80.000000	80.000000	0.000000	0.000000	0.000000	0.000000	0.000000
1.714286	32.857143	32.857143	180.000000	180.000000	30.000000	30.000000	15.000000	15.000000	80.000000	80.000000	0.000000	0.000000	0.000000	0.000000	0.000000
1.755102	31.734694	31.734694	180.000000	180.000000	30.000000	30.000000	15.000000	15.000000	80.000000	80.000000	0.000000	0.000000	0.000000	0.000000	0.000000
1.795918	30.612245	30.612245	180.000000	180.000000	30.000000	30.000000	15.000000	15.000000	80.000000	80.000000	0.000000	0.000000	0.000000	0.000000	0.000000
1.836735	29.489796	29.489796	180.000000	180.000000	30.000000	30.000000	15.000000	15.000000	80.000000	80.000000	0.000000	0.000000	0.000000	0.000000	0.000000
1.877551	28.367347	28.367347	180.000000	180.000000	30.000000	30.000000	15.000000	15.000000	80.000000	80.000000	0.000000	0.000000	0.000000	0.000000	0.000000
1.918367	27.244898	27.244898	180.000000	180.000000	30.000000	30.000000	15.000000	15.000000	80.000000	80.000000	0.000000	0.000000	0.000000	0.000000	0.000000
1.959184	26.122449	26.122449	180.000000	180.000000	30.000000	30.000000	15.000000	15.000000	80.000000	80.000000	0.000000	0.000000	0.000000	0.000000	0.000000
2.000000	25.000000	25.000000	180.000000	180.000000	30.000000	30.000000	15.000000	15.000000	80.000000	80.000000	0.000000	0.000000	0.000000	0.000000	0.000000
